<?xml version="1.0" encoding="iso-8859-1"?>
<!-- Generator: Adobe Illustrator 16.0.0, SVG Export Plug-In . SVG Version: 6.00 Build 0)  -->
<!DOCTYPE svg PUBLIC "-//W3C//DTD SVG 1.1//EN" "http://www.w3.org/Graphics/SVG/1.1/DTD/svg11.dtd">
<svg version="1.1" id="Capa_1" xmlns="http://www.w3.org/2000/svg" xmlns:xlink="http://www.w3.org/1999/xlink" x="0px" y="0px"
	 width="430.703px" height="430.704px" viewBox="0 0 430.703 430.704" style="enable-background:new 0 0 430.703 430.704;"
	 xml:space="preserve">
<g>
	<g>
		<path d="M225.172,232.709c-52.633,19.935-52.799-28.792-52.799-28.792s-2.131-47.364,9.662-61.009
			c11.797-13.646,36.686-37.961,45.189-38.772c31.867,2.598,50.863-5.5,50.863-5.5c19.408-8.385,22.059-24.325,14.707-28.039
			c-2.664-1.345-2.664-1.345-25.17-6.356l-31.552-7.024c-8.959-1.994-22.477-1.705-60.414,13.77
			c-18.631,7.599-34.986,15.529-35.672,15.862c-3.598,1.748-6.535,4.492-9.016,7.628C77.762,161.789,0,328.344,0,328.344
			l90.2,46.007c34.029-52.024,84.086-54.862,122.598-73.036c13.619-6.427,31.136-20.347,64.87-40.165
			c4.537-2.666,18.094-13.521,16.371-18.358C292.5,238.471,271.01,215.351,225.172,232.709z"/>
		<path d="M418.016,107.506H260.592c-6.992,0-12.688,5.691-12.688,12.683v87.635c0,6.991,5.695,12.683,12.688,12.683h157.424
			c6.992,0,12.688-5.691,12.688-12.683v-87.635C430.703,113.198,425.008,107.506,418.016,107.506z M414.658,204.462H263.95v-40.455
			h150.708V204.462z M414.658,142.612H263.95v-19.061h150.708V142.612z"/>
	</g>
</g>
<g>
</g>
<g>
</g>
<g>
</g>
<g>
</g>
<g>
</g>
<g>
</g>
<g>
</g>
<g>
</g>
<g>
</g>
<g>
</g>
<g>
</g>
<g>
</g>
<g>
</g>
<g>
</g>
<g>
</g>
</svg>
